<svg id="Layer_1" data-name="Layer 1" xmlns="http://www.w3.org/2000/svg" xmlns:xlink="http://www.w3.org/1999/xlink" viewBox="0 0 246.02 198.02"><defs><style>.cls-1{fill:none;}.cls-2{clip-path:url(#clip-path);}.cls-3{fill:#ff4338;}.cls-4{fill:#231f20;}</style><clipPath id="clip-path"><rect class="cls-1" x="16.76" y="25.44" width="212.5" height="147.14"/></clipPath></defs><title>redd_logo_red</title><g class="cls-2"><path class="cls-3" d="M200.4,64.83H176V57.37h20a.37.37,0,0,0,.37-.37V45.17a.37.37,0,0,0-.37-.37H176V38.06h23.66a.37.37,0,0,0,.37-.37V26.07a.37.37,0,0,0-.37-.37H158.12a.37.37,0,0,0-.37.37V76.75a.37.37,0,0,0,.37.37H200.4a.37.37,0,0,0,.37-.37V65.2a.37.37,0,0,0-.37-.37"/><path class="cls-3" d="M44.19,41.69h14V77a.38.38,0,0,0,.38.38H77A.38.38,0,0,0,77.4,77V41.69h14a.38.38,0,0,0,.38-.37V25.82a.38.38,0,0,0-.37-.37H44.19a.38.38,0,0,0-.37.38v15.5a.38.38,0,0,0,.38.38"/><path class="cls-3" d="M98.41,77.38h18.43a.38.38,0,0,0,.38-.37V59.76h13V77a.38.38,0,0,0,.38.38H149a.38.38,0,0,0,.38-.37V25.82a.38.38,0,0,0-.37-.37H130.59a.38.38,0,0,0-.37.38V43.5h-13V25.82a.38.38,0,0,0-.37-.37H98.41a.38.38,0,0,0-.37.38V77a.38.38,0,0,0,.38.38"/><path class="cls-3" d="M34.14,102.52h9.58c3.72,0,4,3.56,4,4.65,0,2.87-1.71,4.65-4.47,4.65H34.14Zm24.41,19.56c4.54-3.3,6.94-8.63,6.94-15.42,0-11.64-6.9-18.88-18-18.88H17.14a.38.38,0,0,0-.37.38v51.19a.38.38,0,0,0,.38.38h18a.38.38,0,0,0,.38-.37V125.82h4.55l4.67,13.64a.38.38,0,0,0,.35.25H65.18a.37.37,0,0,0,.31-.17.38.38,0,0,0,0-.35Z"/><path class="cls-3" d="M115.22,127.17H90.83v-7.46h20a.37.37,0,0,0,.37-.37V107.51a.37.37,0,0,0-.37-.37h-20V100.4H114.5a.37.37,0,0,0,.37-.37V88.41a.37.37,0,0,0-.37-.37H72.94a.37.37,0,0,0-.37.37v50.68a.37.37,0,0,0,.37.37h42.28a.37.37,0,0,0,.37-.37V127.54a.37.37,0,0,0-.37-.37"/><path class="cls-3" d="M139.86,102.94h6.83c6,0,7.3,5.8,7.3,10.67,0,7.32-2.89,10.89-8.84,10.89h-5.29Zm8.51-15.16H123.22a.38.38,0,0,0-.37.38v51.19a.38.38,0,0,0,.38.38h23.55c17.57,0,26.48-8.89,26.48-26.41s-7.9-25.53-24.87-25.53"/><path class="cls-3" d="M196.21,103H203c6,0,7.23,5.74,7.23,10.56,0,7.25-2.86,10.78-8.75,10.78h-5.24Zm8.43-15h-24.9a.37.37,0,0,0-.37.37v50.68a.37.37,0,0,0,.37.37H203c17.4,0,26.22-8.8,26.22-26.14S221.44,88,204.64,88"/><path class="cls-4" d="M41,166.45c.25-2.12-.37-2.42-1.19-2.42-1.36,0-2.18,2.36-2.52,5.29-.24,2.08.4,2.42,1.17,2.42,1.31,0,2.17-2.1,2.53-5.29m-5.61,2c.23-1.79,1.34-5.2,4.42-5.2,2,0,3.31,1,3.1,3.59s-1.34,5.67-4.46,5.67c-2.09,0-3.44-1.06-3.06-4.06"/><path class="cls-4" d="M44.24,166.85c.13-1.51.79-3.59,2.53-3.59,1.42,0,1.78,1,1.61,2.44.79-1.74,1.94-2.44,3.19-2.44,1.75,0,2.21,1.13,1.51,3.84l-.59,2.21c-.45,1.7-.44,2.34.19,2.34s1.06-1,1.25-2.7l.68.1c-.11,1.61-.87,3.47-2.55,3.47s-2.13-1-1.55-3.11l.64-2.32c.61-2.17.28-2.89-.43-2.89-1.17,0-2.26,1.23-3.17,5.59L47,172.23s-.62,0-1,0-1,0-1,0c.34-1.34,1-4.25,1.25-5.59.38-1.85.43-2.45-.13-2.45s-1.08,1.06-1.28,2.76Z"/><path class="cls-4" d="M71.59,160.18a2.53,2.53,0,0,0-1.16-.92,4.07,4.07,0,0,0-1.52-.29,3.88,3.88,0,0,0-.92.11,2.51,2.51,0,0,0-.8.35,1.81,1.81,0,0,0-.57.61,1.78,1.78,0,0,0-.22.9,1.4,1.4,0,0,0,.54,1.19,5.18,5.18,0,0,0,1.34.71c.53.2,1.11.4,1.75.58a7.24,7.24,0,0,1,1.75.78,4.33,4.33,0,0,1,1.34,1.32,3.88,3.88,0,0,1,.54,2.18,4.81,4.81,0,0,1-.45,2.15A4.41,4.41,0,0,1,72,171.37a5.27,5.27,0,0,1-1.78.91,7.47,7.47,0,0,1-2.14.3,8,8,0,0,1-2.75-.47,5.26,5.26,0,0,1-2.26-1.6l2.05-2a3.43,3.43,0,0,0,1.31,1.18,3.68,3.68,0,0,0,1.72.42,3.6,3.6,0,0,0,.95-.13,3,3,0,0,0,.87-.39,2.08,2.08,0,0,0,.63-.66,1.78,1.78,0,0,0,.24-.92,1.6,1.6,0,0,0-.54-1.3,4.85,4.85,0,0,0-1.34-.77c-.53-.21-1.12-.41-1.75-.59a7.3,7.3,0,0,1-1.75-.77,4.22,4.22,0,0,1-1.34-1.3,3.87,3.87,0,0,1-.54-2.17,4.12,4.12,0,0,1,.48-2.05,4.42,4.42,0,0,1,1.28-1.44,5.53,5.53,0,0,1,1.8-.85,7.75,7.75,0,0,1,2.08-.28,7.6,7.6,0,0,1,2.34.37,5.43,5.43,0,0,1,2,1.21Z"/><path class="cls-4" d="M83.12,167.55h-.54c-.36,0-.77,0-1.21,0a6.47,6.47,0,0,0-1.26.21,2.92,2.92,0,0,0-1,.48,1,1,0,0,0-.41.88,1.1,1.1,0,0,0,.16.62,1.38,1.38,0,0,0,.42.42,1.74,1.74,0,0,0,.58.25,2.81,2.81,0,0,0,.65.07,2.7,2.7,0,0,0,2-.64,2.34,2.34,0,0,0,.64-1.74Zm.15,3.22h-.07a3.35,3.35,0,0,1-1.43,1.29,4.48,4.48,0,0,1-1.9.4,5,5,0,0,1-1.39-.2,3.78,3.78,0,0,1-1.21-.58,3,3,0,0,1-.85-1,2.74,2.74,0,0,1-.32-1.36,3.17,3.17,0,0,1,.3-1.43,3,3,0,0,1,.81-1,4.08,4.08,0,0,1,1.18-.64,8.13,8.13,0,0,1,1.4-.36,12.36,12.36,0,0,1,1.46-.15c.49,0,.95,0,1.38,0h.65v-.28A1.69,1.69,0,0,0,82.6,164a2.82,2.82,0,0,0-1.71-.49,4,4,0,0,0-1.53.29,3.85,3.85,0,0,0-1.23.79l-1.36-1.36a5.05,5.05,0,0,1,2-1.27,7.43,7.43,0,0,1,2.39-.39,6,6,0,0,1,1.86.25,4.14,4.14,0,0,1,1.25.64,2.84,2.84,0,0,1,.76.9,4.15,4.15,0,0,1,.39,1,5.18,5.18,0,0,1,.14,1c0,.32,0,.61,0,.85v6H83.28Z"/></g><rect class="cls-4" x="88.97" y="155.86" width="2.59" height="16.33"/><g class="cls-2"><path class="cls-4" d="M95,161.82h2.46v1.62h0a3.49,3.49,0,0,1,1.11-1.31,3.38,3.38,0,0,1,2.06-.57,3.15,3.15,0,0,1,3.24,1.92,3.66,3.66,0,0,1,1.41-1.46,4.1,4.1,0,0,1,2-.47,4,4,0,0,1,1.75.35,3.06,3.06,0,0,1,1.16.95,3.94,3.94,0,0,1,.64,1.42,7.46,7.46,0,0,1,.19,1.74v6.18h-2.59v-5.87a4.76,4.76,0,0,0-.09-.92,2.3,2.3,0,0,0-.3-.78,1.53,1.53,0,0,0-.59-.53,2,2,0,0,0-.95-.2,2.15,2.15,0,0,0-1,.23,2,2,0,0,0-.69.6,2.47,2.47,0,0,0-.39.86,4.19,4.19,0,0,0-.12,1v5.61h-2.59V166a2.6,2.6,0,0,0-.41-1.54,1.56,1.56,0,0,0-1.36-.57,2.48,2.48,0,0,0-1.09.22,2.14,2.14,0,0,0-.73.58,2.3,2.3,0,0,0-.42.84,3.77,3.77,0,0,0-.13,1v5.66H95Z"/><path class="cls-4" d="M116.49,167a3.37,3.37,0,0,0,.21,1.17,3,3,0,0,0,.6,1,3.1,3.1,0,0,0,1,.69,3.06,3.06,0,0,0,3.51-.69,3,3,0,0,0,.61-1,3.45,3.45,0,0,0,0-2.33,2.93,2.93,0,0,0-.61-1,3,3,0,0,0-1-.69,3.07,3.07,0,0,0-3.51.69,2.93,2.93,0,0,0-.6,1,3.36,3.36,0,0,0-.21,1.17m-2.59,0a5.48,5.48,0,0,1,.44-2.24,5.18,5.18,0,0,1,1.2-1.72,5.29,5.29,0,0,1,1.79-1.1,6.45,6.45,0,0,1,4.41,0,5.3,5.3,0,0,1,1.79,1.1,5.24,5.24,0,0,1,1.2,1.72,5.88,5.88,0,0,1,0,4.47,5.15,5.15,0,0,1-3,2.82,6.45,6.45,0,0,1-4.41,0,5.29,5.29,0,0,1-1.79-1.1,5.21,5.21,0,0,1-1.2-1.72,5.46,5.46,0,0,1-.44-2.23"/><path class="cls-4" d="M128.13,161.82h2.46v1.66h0a3.61,3.61,0,0,1,1.12-1.35,3.33,3.33,0,0,1,2.06-.57,4,4,0,0,1,1.76.35,3.35,3.35,0,0,1,1.18.91,3.45,3.45,0,0,1,.65,1.3,5.86,5.86,0,0,1,.19,1.53v6.54H135v-5.25c0-.29,0-.61,0-1a3.57,3.57,0,0,0-.23-1,1.9,1.9,0,0,0-.58-.78,1.64,1.64,0,0,0-1.06-.31,2.46,2.46,0,0,0-1.09.22,2.1,2.1,0,0,0-.73.58,2.3,2.3,0,0,0-.42.84,3.77,3.77,0,0,0-.13,1v5.66h-2.59Z"/><path class="cls-4" d="M155.74,160.18a2.53,2.53,0,0,0-1.16-.92,4.07,4.07,0,0,0-1.52-.29,3.88,3.88,0,0,0-.92.11,2.51,2.51,0,0,0-.8.35,1.81,1.81,0,0,0-.57.61,1.78,1.78,0,0,0-.21.9,1.4,1.4,0,0,0,.54,1.19,5.18,5.18,0,0,0,1.34.71c.53.2,1.11.4,1.75.58a7.24,7.24,0,0,1,1.75.78,4.33,4.33,0,0,1,1.34,1.32,3.88,3.88,0,0,1,.54,2.18,4.81,4.81,0,0,1-.45,2.15,4.41,4.41,0,0,1-1.22,1.52,5.27,5.27,0,0,1-1.78.91,7.47,7.47,0,0,1-2.14.3,8,8,0,0,1-2.75-.47,5.26,5.26,0,0,1-2.26-1.6l2.05-2a3.43,3.43,0,0,0,1.31,1.18,3.68,3.68,0,0,0,1.72.42,3.6,3.6,0,0,0,.95-.13,3,3,0,0,0,.87-.39,2.08,2.08,0,0,0,.63-.66A1.78,1.78,0,0,0,155,168a1.6,1.6,0,0,0-.54-1.3,4.85,4.85,0,0,0-1.34-.77c-.54-.21-1.12-.41-1.75-.59a7.3,7.3,0,0,1-1.75-.77,4.22,4.22,0,0,1-1.34-1.3,3.87,3.87,0,0,1-.54-2.17,4.12,4.12,0,0,1,.48-2.05,4.42,4.42,0,0,1,1.28-1.44,5.53,5.53,0,0,1,1.8-.85,7.75,7.75,0,0,1,2.07-.28,7.6,7.6,0,0,1,2.34.37,5.43,5.43,0,0,1,2,1.21Z"/><path class="cls-4" d="M159.74,164v-2.2h2.14v-3h2.59v3h2.85V164h-2.85v4.53a2.25,2.25,0,0,0,.29,1.23,1.28,1.28,0,0,0,1.16.46,4.26,4.26,0,0,0,.75-.08,1.59,1.59,0,0,0,.65-.25v2.18a3.37,3.37,0,0,1-1,.27,8.54,8.54,0,0,1-1,.08,5.3,5.3,0,0,1-1.69-.23,2.26,2.26,0,0,1-1-.69,2.66,2.66,0,0,1-.52-1.16,8.18,8.18,0,0,1-.14-1.6V164Z"/><path class="cls-4" d="M169.89,161.82h2.59v1.64h0a3.26,3.26,0,0,1,1.23-1.41,3.41,3.41,0,0,1,1.84-.5,2.42,2.42,0,0,1,.46,0l.47.11v2.5l-.64-.14a3.7,3.7,0,0,0-.61-.05,2.79,2.79,0,0,0-1.46.33,2.61,2.61,0,0,0-.84.77,2.56,2.56,0,0,0-.39.86,3.43,3.43,0,0,0-.1.65v5.55h-2.59Z"/><path class="cls-4" d="M185.83,166a2.44,2.44,0,0,0-.71-1.8,2.67,2.67,0,0,0-1.92-.66,2.53,2.53,0,0,0-1.85.67,3,3,0,0,0-.83,1.79Zm-5.31,1.94a2.63,2.63,0,0,0,.91,1.81,2.84,2.84,0,0,0,1.88.65,3.07,3.07,0,0,0,1.63-.4,4.48,4.48,0,0,0,1.16-1l1.86,1.4a5.28,5.28,0,0,1-2,1.6,6,6,0,0,1-2.35.48,6.25,6.25,0,0,1-2.2-.39,5.14,5.14,0,0,1-3-2.82,5.87,5.87,0,0,1,0-4.47,5.23,5.23,0,0,1,1.2-1.72,5.29,5.29,0,0,1,1.79-1.1,6.21,6.21,0,0,1,2.2-.39,5.07,5.07,0,0,1,2,.38,4.28,4.28,0,0,1,1.54,1.09,5,5,0,0,1,1,1.76,7.46,7.46,0,0,1,.35,2.41v.71Z"/><path class="cls-4" d="M198.77,166a2.44,2.44,0,0,0-.71-1.8,2.67,2.67,0,0,0-1.92-.66,2.53,2.53,0,0,0-1.85.67,3,3,0,0,0-.83,1.79Zm-5.31,1.94a2.63,2.63,0,0,0,.91,1.81,2.84,2.84,0,0,0,1.88.65,3.07,3.07,0,0,0,1.63-.4,4.48,4.48,0,0,0,1.16-1l1.86,1.4a5.28,5.28,0,0,1-2,1.6,6,6,0,0,1-2.35.48,6.25,6.25,0,0,1-2.2-.39,5.14,5.14,0,0,1-3-2.82,5.87,5.87,0,0,1,0-4.47,5.23,5.23,0,0,1,1.2-1.72,5.29,5.29,0,0,1,1.79-1.1,6.21,6.21,0,0,1,2.2-.39,5.07,5.07,0,0,1,2,.38A4.28,4.28,0,0,1,200,163a5,5,0,0,1,1,1.76,7.46,7.46,0,0,1,.35,2.41v.71Z"/><path class="cls-4" d="M203.11,164v-2.2h2.14v-3h2.59v3h2.85V164h-2.85v4.53a2.25,2.25,0,0,0,.29,1.23,1.28,1.28,0,0,0,1.16.46,4.26,4.26,0,0,0,.75-.08,1.59,1.59,0,0,0,.65-.25v2.18a3.37,3.37,0,0,1-1,.27,8.54,8.54,0,0,1-1,.08,5.3,5.3,0,0,1-1.69-.23,2.26,2.26,0,0,1-1-.69,2.66,2.66,0,0,1-.52-1.16,8.18,8.18,0,0,1-.14-1.6V164Z"/></g></svg>