<svg id="Layer_1" data-name="Layer 1" xmlns="http://www.w3.org/2000/svg" viewBox="0 0 473.91 351.22"><defs><style>.cls-1{fill:#fff;}</style></defs><title>stamping_machine</title><polygon class="cls-1" points="272.72 127.77 272.08 127.51 271.57 128.61 272.71 129.13 272.72 127.77"/><polygon class="cls-1" points="284.75 141.98 285.09 142.53 285.86 141.42 285.48 140.85 284.43 141.47 284.75 141.98 284.75 141.98"/><polygon class="cls-1" points="286.05 144.23 286.81 143.12 286.44 142.55 285.39 143.17 286.05 144.23"/><polygon class="cls-1" points="290.92 157.96 289.71 158.09 289.87 159.33 291.03 158.63 290.92 157.96"/><path class="cls-1" d="M232.63,270.4h0l0,0,.88.21a7.91,7.91,0,0,1,1.22-2.68c.14-.22.26-.42.37-.62.28-.49.58-1,.86-1.45.51-.85,1-1.72,1.48-2.62a19.47,19.47,0,0,0,1.36-3.81,40.62,40.62,0,0,0,.9-6.72c0-.63.1-1.27.16-1.91a16.61,16.61,0,0,0,.08-2.74l-.61-.18-1.13-.25.37-1.65h0l.06-5.4-6.9.82-24.58-2.64a12.6,12.6,0,0,0-1.53,1.51c-.57.84-1.36.67-1.37,1.23a79.92,79.92,0,0,1-1.83,8.63,26.61,26.61,0,0,1-5.33,8.09,12.9,12.9,0,0,1-2.9,1.84l0,3.05,5.3,1.63,10-1.61,13.91,4.8Z"/><path class="cls-1" d="M240.73,250.88c-.06.63-.11,1.28-.16,1.9a41.26,41.26,0,0,1-.92,6.86,20.3,20.3,0,0,1-1.42,4c-.46.93-1,1.83-1.52,2.69-.28.47-.58,1-.85,1.43-.12.21-.25.42-.39.65a7.92,7.92,0,0,0-1.05,2.14l51.44-8.94s-.68-.56-1.08-.84c-.93-.64-3-1.89-3.79-2.41s-.86-3.57-.86-3.57-1.31,0-1.78-.52-.62-1.62-1.24-3.23a33,33,0,0,1-1.05-5.6l0-1.15-35.17,4A19.75,19.75,0,0,1,240.73,250.88Z"/><path class="cls-1" d="M233.8,271.53l-.3-.07v0L223.38,269l0,2.92,10.09,2.52,53.71-10,.14-1.65-.81-.72Z"/><path class="cls-1" d="M231.77,240l6.92-.76.44-36.32.07-5.85.21-17.78a.12.12,0,0,1,0-.1q-.42-.65-.82-1.32a35.63,35.63,0,0,1-3.1-6.61c-2-5.9-2.14-12.25-2.25-18.48l5.46-1.06c-.29.06-.09,4.33-.07,4.77a39.38,39.38,0,0,0,.53,4.84,56.57,56.57,0,0,0,2.67,9.32s1.5,3,1.5,3.26a29.13,29.13,0,0,0,1.88,3l-.44-.67a38.68,38.68,0,0,0,8.57,9.12,35.23,35.23,0,0,0,10.88,5.67,20.21,20.21,0,0,0,7.51.84,7,7,0,0,1-2.51.45c-1.09,0-2.19,0-3.28,0-4.4-.15-9-.46-13.18-2q-.62-.23-1.22-.49a26.44,26.44,0,0,1-7.72-5.22q-.75-.73-1.45-1.52c0,4.36-.37,56.37-.42,63.3l33.79-3.83a6.56,6.56,0,0,1-.93-2.86,8.6,8.6,0,0,1,.2-3l-1.64-.16L272.62,192l2.39-.63c11-2.82,17.86-14.95,17.42-29.07l-2.71-.55v-.57l1.27-.49V160l-1.18-.08.05-.63-.26-1.89,1.15-.7-.11-.68-1.21.14-.11-.65,1.15-.65-.09-.68-1.21.1-.22-.69,1-.73-.15-.67-1.17.21-.17-.73,1.1-.77-.15-.67-1.18.21,0-.69,1-.93-.25-.64-1.15.39-.27-.77,1-.93-.25-.64-1.15.39-.25-.64,1-.92-.25-.64-1.15.39L284.79,142h0l-.74-1.16.76-1.1-.38-.57-1,.62-.33-.52.62-1.12-.43-.53-.87.63-.36-.62.55-1.24-.48-.49-.9.79-.49-.64.53-1.25-.49-.48-.84.76-.28-.2.43-1.53-.52-.44-.83.89-.53-.45.42-1.28-.52-.44-.83.89s.07.08-.41-.34l.43-1.28-.52-.44-.83.89s0,0-.41-.32l.42-1.27-.52-.44-.83.89-.26-.22-.2-.15.21-1.18-.58-.36-.65.94c-1-.51-2.11-1-2.11-1l0-2.92h-1.44l0-5a13.26,13.26,0,0,0-1.63-.61c-.45-.09-.49-.39-1.42-.39h-1.36l-6.41-2.51a11.76,11.76,0,0,0,1.85-6.28c.05-6.19-4.56-11.24-10.31-11.29q-.39,0-.77,0h0c-1.53.11-15.29,5-15.29,5-.16.07-.31,1.18-.36,1.36-.19.68-.38,1.36-.55,2a25.21,25.21,0,0,0-.71,4.22,13,13,0,0,0,.36,4.58,23.46,23.46,0,0,0,1.11,2.56c.15.26.26.42.32.39l-1.6,1a18.34,18.34,0,0,0-3.8-1.56,18.8,18.8,0,0,0-4.82-.8l-4.2.34-1.91.36-.3,5.09v0c-9.28.46-16.73,8.77-16.82,19a20.59,20.59,0,0,0,1.47,7.87c-11.56.55-20.83,11.06-20.95,24-.12,13.39,9.58,24.33,21.65,24.43a19.88,19.88,0,0,0,4.56-.49c0,2.18.42,35.45.29,37.8a8.76,8.76,0,0,1-.14,1Zm13.8-30.51a1.65,1.65,0,0,1,1.45-1.75V209a.65.65,0,0,0-.31.63v.84h-1.13Zm1.38,7a1.65,1.65,0,0,1-1.42-1.76v-.93h1.13v.83a.64.64,0,0,0,.3.64Zm2.21-5.62a1.15,1.15,0,0,1-.85,1.19,1.17,1.17,0,0,1,.83,1.19v1.47a1.72,1.72,0,0,1-1.81,1.79v-1.17a.56.56,0,0,0,.57-.64v-1.65c0-.27-.12-.46-.48-.46h-.58v-1h.58a.42.42,0,0,0,.49-.47v-1.54a.58.58,0,0,0-.56-.66v-1.17a1.72,1.72,0,0,1,1.78,1.82Zm4.6,2.4c0,.29,0,.57,0,.86a7.08,7.08,0,0,1,0,.88,1.76,1.76,0,0,1-.48,1,1.93,1.93,0,0,1-1.39.5,1.67,1.67,0,0,1-1.7-1.78v-.85h1.12v.75a.62.62,0,0,0,.62.7.59.59,0,0,0,.63-.67c0-.3,0-.59,0-.89s0-.46,0-.68a.64.64,0,0,0-.18-.51.74.74,0,0,0-.31-.13c-.58-.13-1.18-.17-1.78-.24h0a0,0,0,0,1,0,0c0-.57.06-1.15.1-1.72l.11-1.91,0-.66,3.22,0a5.27,5.27,0,0,1-.09,1.13c-.11.08-.46,0-.63,0h-1.46s-.06,1.09-.07,1.16,0,.35,0,.53-.09.45,0,.5a.2.2,0,0,0,.09,0c.69,0,1.72-.1,2.14.59A2.56,2.56,0,0,1,253.75,213.31Zm-13-65.9-1.13-.44.22-.65,1.35-.08Zm.47-2.24-1.13-.44.22-.65,1.35-.08Zm.25-2-1-.69.36-.58,1.34.23Zm.51-1.92-1-.62.32-.61,1.35.14Zm12.1-4.77c.77,2.53,2,6.82,2,6.82l.38,1.66a2.65,2.65,0,0,1,.55,1.58l0,1.72c0,.94,0,1.67-.81,2.18s-.52,1-2.61.67-6.54-1.39-7.73-1.7a7.31,7.31,0,0,1-1.94-.81l-.65-.69a27.94,27.94,0,0,1,1.06-5.32,28.36,28.36,0,0,1,2.48-5.33c.86-1.19.75-1.47,1.89-2.39s1.65-1.4,2.27-1.38a2.4,2.4,0,0,1,1.46.55C253,134.45,253.27,134,254,136.51Zm-1.45-10.24s.46-.39.57-.39a8.64,8.64,0,0,1,.92,1.21l-1.11.46Zm1.56-.64a2.43,2.43,0,0,1,.6-.35,8.64,8.64,0,0,1,.83,1.27l-1.14.38Zm1.51-.53a2.43,2.43,0,0,1,.6-.35,8.63,8.63,0,0,1,.83,1.27l-1.14.38Zm-4.27,3.26-.38-1.27s.46-.39.57-.39a8.64,8.64,0,0,1,.92,1.21Zm-.29.34-1,.59-.54-1.22s.4-.45.51-.46A8.64,8.64,0,0,1,251.1,128.7Zm-1.3.89-1,.7-.66-1,.55-.4Zm-1.24,1.19-1,.7-.66-1,.55-.4ZM247.35,132l-1,.78-.74-1,.52-.44Zm-1.15,1.25-.88.89-.85-.87.46-.5Zm-1.12,1.64-.88.89-.85-.87.46-.5Zm-.92,1.67-.75,1-1-.74.39-.56Zm-.87,1.77-.75,1-1-.74L242,138Zm8.16,36.37c-.87.45-1.34,1.43-2.43,0a24.13,24.13,0,0,1-4-7.54c-1.24-3.82-2.36-7.29-2.41-8.91s-.28-1.23,0-2.58.6-1.45.6-1.45v.25c0-.12.15-.41,1.14-.11l.5.17c1.75.68,4.73,2.18,6.81,2.87a14.84,14.84,0,0,1,3.94,1.66,2.33,2.33,0,0,1,.95,1.88,10.45,10.45,0,0,1,0,2.34,20.48,20.48,0,0,1-1.54,4.32C254.27,169.13,252.32,174.25,251.45,174.71Zm18.9,9.51c-.51.73-.29,1.13-1.88,1.28a23.76,23.76,0,0,1-7.39-1.25,15.15,15.15,0,0,1-4.39-2.3,3.26,3.26,0,0,1-1.21-3.34,45.56,45.56,0,0,1,3.09-4.83l3-3.59.91-.84,1.19-.27a2,2,0,0,1,1.58.41,17.72,17.72,0,0,1,1.38,3.46l2.05,4.59s.89,2.15,1.38,3.29.56,1.13.55,1.64S270.86,183.48,270.34,184.21Zm-3.22-19c-3.21.5-6.32-2.37-7-6.42s1.46-7.73,4.66-8.24,6.32,2.37,7,6.42S270.33,164.73,267.12,165.23Zm15.64,1.12-.2,1.38a23.15,23.15,0,0,1-.89,4,33.72,33.72,0,0,1-1.76,4.48c-.57,1-1.29,2.59-1.61,3a6.8,6.8,0,0,1-.88,1h-.25a3.58,3.58,0,0,1-1,0c-.59-.09-.93-.29-1-.6s-3.1-10.4-3.1-10.4a5.72,5.72,0,0,1-.1-1.39,4.23,4.23,0,0,1,.27-1.81c.26-.51.46-1,.46-1l9.42,1.16h.55ZM276,144.15l.45-.7.31-.43s.08-.14.15-.1a12.91,12.91,0,0,1,.72,1.08l1.37,2.54a11.5,11.5,0,0,1,1,1.74c.19.55.64,1.76.92,2.67a14,14,0,0,1,.56,1.63,39.34,39.34,0,0,1,.76,4c.12,1.07.39,2.18.37,2.65s0,.53-.08.63-.44,0-.44,0l-3.65-1.46-3.32-1.31-.92-.58s-.09-.65-.15-.83a7.9,7.9,0,0,0-.36-.86c-.08-.16-.42-1-.42-1l-.56-.7-.62-.74v-.36l.82-1.94Zm-10.47-19.41a2.43,2.43,0,0,1,.68-.09,8.64,8.64,0,0,1,.27,1.5l-1.19-.1Zm-1.57-.25a2.43,2.43,0,0,1,.68-.09,8.64,8.64,0,0,1,.27,1.5l-1.19-.1Zm-1.63-.2a2.43,2.43,0,0,1,.68-.09,8.64,8.64,0,0,1,.27,1.5l-1.19-.1Zm-1.66-.05a2.43,2.43,0,0,1,.68-.09,8.64,8.64,0,0,1,.27,1.5l-1.19-.1Zm-1.21-.16a8.64,8.64,0,0,1,.63,1.39l-1.18.2-.09-1.33A2.43,2.43,0,0,1,259.52,124.07Zm-.4,6.48a5.46,5.46,0,0,1,4.24-.23c1.35.56,6,2.95,6,2.95s2.9,1.52,3.28,1.84a1.66,1.66,0,0,1,.8,1.17c.08.62.57.72-.48,2.11s-3.68,5.37-4.54,6.5-.63,1.35-1.65,1.62a2.39,2.39,0,0,1-2.48-.42c-.62-.62-4.94-10.22-4.94-10.22l-.72-1.74-.2-1.4,0-.41C258.48,131.73,258.21,131.1,259.12,130.55Zm-.47-4.87-1.17.26-.15-1.32a2.43,2.43,0,0,1,.63-.28A8.64,8.64,0,0,1,258.65,125.68Z"/><path class="cls-1" d="M245.25,100.53a5.06,5.06,0,0,1,.94-.81,11.23,11.23,0,0,0-1.34,1l.1,0Z"/></svg>