<svg id="Layer_1" data-name="Layer 1" xmlns="http://www.w3.org/2000/svg" viewBox="0 0 309.68 217.83"><defs><style>.cls-1{fill:#fff;}</style></defs><title>redd_logo_wht</title><path class="cls-1" d="M258.74,87.48H225.89v-10h27a.5.5,0,0,0,.5-.5V61a.5.5,0,0,0-.5-.5h-27V51.43h31.87a.5.5,0,0,0,.5-.5V35.28a.5.5,0,0,0-.5-.5h-56a.5.5,0,0,0-.5.5v68.25a.5.5,0,0,0,.5.5h56.94a.5.5,0,0,0,.5-.5V88A.5.5,0,0,0,258.74,87.48Z"/><path class="cls-1" d="M49.11,56.45H67.82v47.08a.5.5,0,0,0,.5.5H92.89a.5.5,0,0,0,.5-.5V56.45H112.1a.5.5,0,0,0,.5-.5V35.28a.5.5,0,0,0-.5-.5h-63a.5.5,0,0,0-.5.5V56A.5.5,0,0,0,49.11,56.45Z"/><path class="cls-1" d="M122,104h24.57a.5.5,0,0,0,.5-.5v-23h17.33v23a.5.5,0,0,0,.5.5h24.57a.5.5,0,0,0,.5-.5V35.28a.5.5,0,0,0-.5-.5H164.89a.5.5,0,0,0-.5.5V58.87H147.06V35.28a.5.5,0,0,0-.5-.5H122a.5.5,0,0,0-.5.5v68.25A.5.5,0,0,0,122,104Z"/><path class="cls-1" d="M73.67,166.51c6.05-4.4,9.25-11.5,9.25-20.56,0-15.52-9.2-25.17-24-25.17H18.45a.5.5,0,0,0-.5.5v68.25a.5.5,0,0,0,.5.5h24a.5.5,0,0,0,.5-.5v-18H49l6.22,18.19a.5.5,0,0,0,.47.34H82.51a.5.5,0,0,0,.46-.69ZM41.12,140.43H53.9c5,0,5.35,4.75,5.35,6.2,0,3.82-2.28,6.2-6,6.2H41.12Z"/><path class="cls-1" d="M148.26,173.48H115.42v-10h27a.5.5,0,0,0,.5-.5V147a.5.5,0,0,0-.5-.5h-27v-9.07h31.87a.5.5,0,0,0,.5-.5V121.28a.5.5,0,0,0-.5-.5h-56a.5.5,0,0,0-.5.5v68.25a.5.5,0,0,0,.5.5h56.94a.5.5,0,0,0,.5-.5V174A.5.5,0,0,0,148.26,173.48Z"/><path class="cls-1" d="M192.18,120.78H158.64a.5.5,0,0,0-.5.5v68.25a.5.5,0,0,0,.5.5H190c23.43,0,35.31-11.85,35.31-35.21S214.81,120.78,192.18,120.78ZM180.84,141h9.11c8,0,9.74,7.73,9.74,14.22,0,9.77-3.86,14.52-11.79,14.52h-7.06Z"/><path class="cls-1" d="M267.21,120.78H233.67a.5.5,0,0,0-.5.5v68.25a.5.5,0,0,0,.5.5h31.4c23.43,0,35.31-11.85,35.31-35.21S289.83,120.78,267.21,120.78ZM255.86,141H265c8,0,9.74,7.73,9.74,14.22,0,9.77-3.86,14.52-11.79,14.52h-7.06Z"/></svg>