<svg version="1.1" xmlns="http://www.w3.org/2000/svg" xmlns:xlink="http://www.w3.org/1999/xlink" viewBox="0 0 112 176">
<style type="text/css">
	.st0{fill:#FFFFFF;}
</style>
<g>
	<polygon style="fill:#ffffff;" points="91.8,28.9 91.1,28.7 90.6,29.8 91.8,30.3 	"/>
	<polygon style="fill:#ffffff;" points="103.8,43.1 104.1,43.7 104.9,42.6 104.5,42 103.5,42.6 103.8,43.1 	"/>
	<polygon style="fill:#ffffff;" points="105.1,45.4 105.9,44.3 105.5,43.7 104.4,44.3 	"/>
	<polygon style="fill:#ffffff;" points="110,59.1 108.8,59.3 108.9,60.5 110.1,59.8 	"/>
	<path style="fill:#ffffff;" d="M51.7,171.6L51.7,171.6L51.7,171.6l0.9,0.2c0.2-1,0.8-1.9,1.2-2.7c0.1-0.2,0.3-0.4,0.4-0.6
		c0.3-0.5,0.6-1,0.9-1.5c0.5-0.8,1-1.7,1.5-2.6c0.6-1.1,1-2.4,1.4-3.8c0.6-2.2,0.7-4.5,0.9-6.7c0-0.6,0.1-1.3,0.2-1.9
		c0.1-1.5,0.1-2.3,0.1-2.7l-0.6-0.2l-1.1-0.3l0.4-1.7l0,0l0.1-5.4l-6.9,0.8l-24.6-2.6c0,0-1.2,1-1.5,1.5c-0.6,0.8-1.4,0.7-1.4,1.2
		c0,0.6-1.1,6.3-1.8,8.6c-0.7,2.3-4,6.9-5.3,8.1s-2.9,1.8-2.9,1.8l0,3.1l5.3,1.6l10-1.6l13.9,4.8L51.7,171.6z"/>
	<path style="fill:#ffffff;" d="M59.8,152c-0.1,0.6-0.1,1.3-0.2,1.9c-0.2,2.3-0.4,4.6-0.9,6.9c-0.4,1.4-0.8,2.8-1.4,4c-0.5,0.9-1,1.8-1.5,2.7
		c-0.3,0.5-0.6,1-0.9,1.4c-0.1,0.2-0.3,0.4-0.4,0.6c-0.4,0.6-0.9,1.4-1.1,2.1l51.4-8.9c0,0-0.7-0.6-1.1-0.8c-0.9-0.6-3-1.9-3.8-2.4
		c-0.8-0.5-0.9-3.6-0.9-3.6s-1.3,0-1.8-0.5c-0.5-0.5-0.6-1.6-1.2-3.2c-0.6-1.6-1.1-5.6-1.1-5.6l0-1.1l-35.2,4
		C59.9,149.9,59.9,150.8,59.8,152z"/>
	<path style="fill:#ffffff;" d="M52.8,172.7l-0.3-0.1l0,0l-10.1-2.5l0,2.9l10.1,2.5l53.7-10l0.1-1.7c0,0-0.3-0.3-0.8-0.7L52.8,172.7z"/>
	<path style="fill:#ffffff;" d="M50.8,141.2l6.9-0.8l0.4-36.3l0.1-5.8l0.2-17.8c0,0,0-0.1,0-0.1c-0.3-0.4-0.6-0.9-0.8-1.3
		c-1.2-2.1-2.3-4.3-3.1-6.6c-2-5.9-2.1-12.3-2.3-18.5l5.5-1.1c-0.3,0.1-0.1,4.3-0.1,4.8c0.1,1.6,0.3,3.2,0.5,4.8
		c0.6,3.2,1.6,6.3,2.7,9.3c0,0,1.5,3,1.5,3.3s1.9,3,1.9,3l-0.4-0.7c2.4,3.5,5.2,6.6,8.6,9.1c3.3,2.5,6.9,4.5,10.9,5.7
		c2.4,0.7,5,1,7.5,0.8c-1,0.4-1.7,0.4-2.5,0.5c-1.1,0-2.2,0-3.3,0c-4.4-0.2-9-0.5-13.2-2c-0.4-0.2-0.8-0.3-1.2-0.5
		c-2.9-1.3-5.5-3-7.7-5.2c-0.5-0.5-1-1-1.5-1.5c0,4.4-0.4,56.4-0.4,63.3l33.8-3.8c-0.3-0.5-0.8-1.5-0.9-2.9c-0.2-1.9,0.2-3,0.2-3
		l-1.6-0.2l-0.8-44.5c0.1,0,2.3-0.6,2.4-0.6c11-2.8,17.9-14.9,17.4-29.1l-2.7-0.6l0-0.6l1.3-0.5l0-0.7l-1.2-0.1l0.1-0.6l-0.3-1.9
		l1.2-0.7l-0.1-0.7l-1.2,0.1l-0.1-0.7l1.1-0.6l-0.1-0.7l-1.2,0.1l-0.2-0.7l1-0.7l-0.2-0.7l-1.2,0.2l-0.2-0.7l1.1-0.8l-0.2-0.7
		l-1.2,0.2l0-0.7l1-0.9l-0.3-0.6l-1.1,0.4l-0.3-0.8l1-0.9l-0.3-0.6l-1.1,0.4l-0.3-0.6l1-0.9l-0.3-0.6l-1.1,0.4l-1.7-2.9l0,0
		l-0.7-1.2l0.8-1.1l-0.4-0.6l-1,0.6l-0.3-0.5l0.6-1.1l-0.4-0.5l-0.9,0.6l-0.4-0.6l0.5-1.2l-0.5-0.5l-0.9,0.8l-0.5-0.6l0.5-1.2
		l-0.5-0.5l-0.8,0.8L98.7,36l0.4-1.5l-0.5-0.4l-0.8,0.9l-0.5-0.5l0.4-1.3l-0.5-0.4l-0.8,0.9c0,0,0.1,0.1-0.4-0.3l0.4-1.3l-0.5-0.4
		L95,32.5c0,0,0,0-0.4-0.3l0.4-1.3l-0.5-0.4l-0.8,0.9c0,0-0.1-0.1-0.3-0.2c-0.1,0-0.1-0.1-0.2-0.2l0.2-1.2l-0.6-0.4l-0.6,0.9
		c-1-0.5-2.1-1-2.1-1l0-2.9l-1.4,0l0-5c0,0-1.2-0.5-1.6-0.6c-0.4-0.1-0.5-0.4-1.4-0.4c-0.9,0-1.4,0-1.4,0s-4.4-1.7-6.4-2.5
		c1.2-1.8,1.8-3.9,1.9-6.3c0.1-6.2-4.6-11.2-10.3-11.3c-0.3,0-0.5,0-0.8,0l0,0l0,0c-1.5,0.1-15.3,5-15.3,5c-0.2,0.1-0.3,1.2-0.4,1.4
		c-0.2,0.7-0.4,1.4-0.5,2c-0.3,1.4-0.6,2.8-0.7,4.2c-0.1,1.5-0.1,3.1,0.4,4.6c0.1,0.2,0.7,1.8,1.1,2.6c0.1,0.3,0.3,0.4,0.3,0.4
		c0,0-1.6,1-1.6,1S50.6,20.8,48,20c-2.5-0.8-4.8-0.8-4.8-0.8L39,19.5l-1.9,0.4L36.8,25l0,0c-9.3,0.5-16.7,8.8-16.8,19
		c0,2.8,0.5,5.5,1.5,7.9C9.9,52.4,0.6,62.9,0.5,75.9c-0.1,13.4,9.6,24.3,21.7,24.4c1.6,0,3.1-0.2,4.6-0.5c0,2.2,0.4,35.5,0.3,37.8
		c0,0.4-0.1,1-0.1,1L50.8,141.2z M64.6,110.7c0-0.9,0.5-1.6,1.5-1.7l0,1.2c-0.2,0.1-0.3,0.3-0.3,0.6l0,0.8l-1.1,0L64.6,110.7z
		 M66,117.7c-1-0.1-1.4-0.9-1.4-1.8l0-0.9l1.1,0l0,0.8c0,0.3,0.1,0.5,0.3,0.6L66,117.7z M68.2,112.1c0,0.6-0.3,1.1-0.8,1.2
		c0.5,0.2,0.8,0.6,0.8,1.2l0,1.5c0,1-0.7,1.8-1.8,1.8l0-1.2c0.4,0,0.6-0.3,0.6-0.6l0-1.7c0-0.3-0.1-0.5-0.5-0.5l-0.6,0l0-1l0.6,0
		c0.4,0,0.5-0.2,0.5-0.5l0-1.5c0-0.4-0.2-0.6-0.6-0.7l0-1.2c1.1,0,1.8,0.8,1.8,1.8L68.2,112.1z M72.8,114.5c0,0.3,0,0.6,0,0.9
		c0,0.3,0,0.6,0,0.9c-0.1,0.4-0.2,0.7-0.5,1c-0.4,0.4-0.9,0.5-1.4,0.5c-1.1,0-1.7-0.9-1.7-1.8l0-0.9l1.1,0l0,0.8
		c0,0.4,0.2,0.7,0.6,0.7c0.4,0,0.6-0.2,0.6-0.7c0-0.3,0-0.6,0-0.9c0-0.2,0-0.5,0-0.7c0-0.2,0-0.4-0.2-0.5c-0.1-0.1-0.2-0.1-0.3-0.1
		c-0.6-0.1-1.2-0.2-1.8-0.2c0,0,0,0,0,0c0,0,0,0,0,0c0-0.6,0.1-1.1,0.1-1.7c0-0.6,0.1-1.3,0.1-1.9c0-0.2,0-0.4,0-0.7l3.2,0
		c0,0.6,0,1.1-0.1,1.1c-0.1,0.1-0.5,0-0.6,0c0,0-1.5,0-1.5,0c0,0-0.1,1.1-0.1,1.2c0,0.2,0,0.4,0,0.5c0,0.1-0.1,0.5,0,0.5
		c0,0,0.1,0,0.1,0c0.7,0,1.7-0.1,2.1,0.6C72.9,113.5,72.8,114,72.8,114.5z M59.8,48.6l-1.1-0.4l0.2-0.6l1.4-0.1L59.8,48.6z
		 M60.2,46.3l-1.1-0.4l0.2-0.6l1.4-0.1L60.2,46.3z M60.5,44.4l-1-0.7l0.4-0.6l1.3,0.2L60.5,44.4z M61,42.4l-1-0.6l0.3-0.6l1.3,0.1
		L61,42.4z M73.1,37.7c0.8,2.5,2,6.8,2,6.8l0.4,1.7c0,0,0.6,0.7,0.6,1.6s0,0.8,0,1.7c0,0.9,0,1.7-0.8,2.2c-0.8,0.5-0.5,1-2.6,0.7
		c-2.1-0.4-6.5-1.4-7.7-1.7c-1.2-0.3-1.9-0.8-1.9-0.8l-0.6-0.7c0,0,0.4-3.5,1.1-5.3c0.7-1.8,1.6-4.1,2.5-5.3
		c0.9-1.2,0.7-1.5,1.9-2.4c1.1-0.9,1.7-1.4,2.3-1.4c0.6,0,0.8,0.2,1.5,0.5C72.1,35.6,72.3,35.1,73.1,37.7z M71.6,27.4
		c0,0,0.5-0.4,0.6-0.4s0.9,1.2,0.9,1.2L72,28.7L71.6,27.4z M73.2,26.8c0,0,0.5-0.4,0.6-0.3c0.1,0,0.8,1.3,0.8,1.3l-1.1,0.4
		L73.2,26.8z M74.7,26.3c0,0,0.5-0.4,0.6-0.3c0.1,0,0.8,1.3,0.8,1.3L75,27.6L74.7,26.3z M70.4,29.5l-0.4-1.3c0,0,0.5-0.4,0.6-0.4
		s0.9,1.2,0.9,1.2L70.4,29.5z M70.2,29.9l-1,0.6l-0.5-1.2c0,0,0.4-0.4,0.5-0.5C69.2,28.8,70.2,29.9,70.2,29.9z M68.9,30.8l-1,0.7
		l-0.7-1l0.6-0.4L68.9,30.8z M67.6,32l-1,0.7l-0.7-1l0.6-0.4L67.6,32z M66.4,33.2l-1,0.8l-0.7-1l0.5-0.4L66.4,33.2z M65.2,34.4
		l-0.9,0.9l-0.8-0.9l0.5-0.5L65.2,34.4z M64.1,36.1L63.2,37l-0.8-0.9l0.5-0.5L64.1,36.1z M63.2,37.7l-0.7,1l-1-0.7l0.4-0.6
		L63.2,37.7z M62.3,39.5l-0.7,1l-1-0.7l0.4-0.6L62.3,39.5z M70.5,75.9c-0.9,0.5-1.3,1.4-2.4,0c-1.1-1.5-2.8-3.7-4-7.5
		c-1.2-3.8-2.4-7.3-2.4-8.9c0-1.6-0.3-1.2,0-2.6c0.3-1.4,0.6-1.5,0.6-1.5l0,0.2c0-0.1,0.1-0.4,1.1-0.1c0.1,0,0.3,0.1,0.5,0.2
		c1.7,0.7,4.7,2.2,6.8,2.9c2.1,0.7,3.4,1.2,3.9,1.7c0.6,0.5,1,1,0.9,1.9c0,0.8,0.2,1.2,0,2.3c-0.2,1.1-0.8,2.8-1.5,4.3
		C73.3,70.3,71.4,75.4,70.5,75.9z M89.4,85.4c-0.5,0.7-0.3,1.1-1.9,1.3c-1.6,0.2-5.5-0.6-7.4-1.3c-1.9-0.7-3.4-1.4-4.4-2.3
		c-1-0.9-1.6-2.3-1.2-3.3c0.4-1.1,3.1-4.8,3.1-4.8l3-3.6l0.9-0.8l1.2-0.3c0,0,1.1-0.2,1.6,0.4c0.5,0.6,1.4,3.5,1.4,3.5l2.1,4.6
		c0,0,0.9,2.2,1.4,3.3c0.5,1.1,0.6,1.1,0.6,1.6C89.6,84.1,89.9,84.6,89.4,85.4z M86.2,66.4c-3.2,0.5-6.3-2.4-7-6.4
		c-0.6-4,1.5-7.7,4.7-8.2c3.2-0.5,6.3,2.4,7,6.4C91.5,62.2,89.4,65.9,86.2,66.4z M101.8,67.5l-0.2,1.4c0,0-0.3,2.2-0.9,4
		c-0.6,1.7-1.2,3.4-1.8,4.5c-0.6,1-1.3,2.6-1.6,3c-0.3,0.4-0.9,1-0.9,1l-0.3,0c0,0-0.5,0.1-1,0c-0.6-0.1-0.9-0.3-1-0.6
		C94,80.4,91,70.3,91,70.3s-0.1-0.6-0.1-1.4c0-0.8,0-1.3,0.3-1.8s0.5-1,0.5-1l9.4,1.2l0.5,0L101.8,67.5z M95.1,45.3l0.5-0.7l0.3-0.4
		c0,0,0.1-0.1,0.1-0.1c0.1,0,0.7,1.1,0.7,1.1l1.4,2.5c0,0,0.8,1.2,1,1.7c0.2,0.6,0.6,1.8,0.9,2.7c0.3,0.9,0.3,0.5,0.6,1.6
		c0.3,1.1,0.6,3,0.8,4c0.1,1.1,0.4,2.2,0.4,2.7s0,0.5-0.1,0.6c-0.1,0.1-0.4,0-0.4,0l-3.7-1.5l-3.3-1.3l-0.9-0.6c0,0-0.1-0.7-0.1-0.8
		c-0.1-0.2-0.3-0.7-0.4-0.9s-0.4-1-0.4-1l-0.6-0.7l-0.6-0.7l0-0.4l0.8-1.9L95.1,45.3z M84.6,25.9c0,0,0.6-0.1,0.7-0.1
		c0.1,0.1,0.3,1.5,0.3,1.5l-1.2-0.1L84.6,25.9z M83.1,25.6c0,0,0.6-0.1,0.7-0.1c0.1,0.1,0.3,1.5,0.3,1.5L82.8,27L83.1,25.6z
		 M81.4,25.4c0,0,0.6-0.1,0.7-0.1c0.1,0.1,0.3,1.5,0.3,1.5l-1.2-0.1L81.4,25.4z M79.8,25.4c0,0,0.6-0.1,0.7-0.1
		c0.1,0.1,0.3,1.5,0.3,1.5l-1.2-0.1L79.8,25.4z M78.6,25.2c0.1,0,0.6,1.4,0.6,1.4L78,26.8l-0.1-1.3C77.9,25.5,78.5,25.2,78.6,25.2z
		 M78.2,31.7c0.9-0.6,2.9-0.8,4.2-0.2c1.4,0.6,6,2.9,6,2.9s2.9,1.5,3.3,1.8s0.7,0.5,0.8,1.2c0.1,0.6,0.6,0.7-0.5,2.1
		c-1,1.4-3.7,5.4-4.5,6.5s-0.6,1.4-1.7,1.6c-1,0.3-1.9,0.2-2.5-0.4C82.7,46.6,78.4,37,78.4,37l-0.7-1.7l-0.2-1.4l0-0.4
		C77.5,32.9,77.3,32.3,78.2,31.7z M77.7,26.8l-1.2,0.3l-0.2-1.3c0,0,0.5-0.3,0.6-0.3S77.7,26.8,77.7,26.8z"/>
	<path style="fill:#ffffff;" d="M64.3,1.7c0.3-0.3,0.6-0.6,0.9-0.8c-0.5,0.3-0.9,0.6-1.3,1c0,0,0.1,0,0.1,0C64.1,1.8,64.2,1.8,64.3,1.7z"/>
</g>
</svg>
